<svg width="25" height="14" viewBox="0 0 25 14" fill="none" xmlns="http://www.w3.org/2000/svg">
<path d="M24.1406 13.3211C23.8286 13.634 23.4591 13.7905 23.0322 13.7905C22.6061 13.7905 22.237 13.634 21.9249 13.3211L12.7812 4.15232L3.6062 13.3524C3.31493 13.6444 2.95084 13.7905 2.51394 13.7905C2.07704 13.7905 1.70255 13.634 1.39047 13.3211C1.0784 13.0081 0.922363 12.6376 0.922363 12.2096C0.922363 11.7823 1.0784 11.4122 1.39047 11.0993L11.9074 0.584948C12.0322 0.459777 12.1674 0.370907 12.3131 0.318335C12.4587 0.266598 12.6147 0.240729 12.7812 0.240729C12.9476 0.240729 13.1036 0.266598 13.2493 0.318335C13.3949 0.370907 13.5301 0.459777 13.655 0.584948L24.1719 11.1306C24.4631 11.4227 24.6088 11.7823 24.6088 12.2096C24.6088 12.6376 24.4527 13.0081 24.1406 13.3211Z" fill="white"/>
</svg>
