<svg width="25" height="14" viewBox="0 0 25 14" fill="none" xmlns="http://www.w3.org/2000/svg">
<path d="M1.39061 0.710113C1.70268 0.397186 2.07218 0.240723 2.49909 0.240723C2.92518 0.240723 3.29426 0.397186 3.60633 0.710113L12.7501 9.87887L21.9251 0.67882C22.2163 0.386755 22.5804 0.240723 23.0173 0.240723C23.4542 0.240723 23.8287 0.397186 24.1408 0.710113C24.4528 1.02304 24.6089 1.39355 24.6089 1.82163C24.6089 2.24888 24.4528 2.61897 24.1408 2.93189L13.6239 13.4462C13.4991 13.5714 13.3638 13.6603 13.2182 13.7129C13.0726 13.7646 12.9165 13.7905 12.7501 13.7905C12.5836 13.7905 12.4276 13.7646 12.282 13.7129C12.1363 13.6603 12.0011 13.5714 11.8763 13.4462L1.3594 2.9006C1.06813 2.60854 0.922497 2.24888 0.922497 1.82163C0.922497 1.39355 1.07853 1.02304 1.39061 0.710113Z" fill="white"/>
</svg>
